<svg width="472" height="120" viewBox="0 0 472 120" fill="none" xmlns="http://www.w3.org/2000/svg">
<path d="M111.967 22.4375H95.5009C91.4918 22.4375 87.8408 24.8 86.1942 28.451L79.4647 43.2701C76.1 50.6439 69.5137 55.9416 61.782 57.7313C59.1332 58.304 56.6276 56.2995 56.6276 53.6507V22.4375H51.3299C46.3186 22.4375 41.3789 23.8693 37.0835 26.5181C32.7882 29.1669 29.3518 32.9612 27.1326 37.4714L18.1122 55.512C16.6804 58.3756 13.8168 60.3085 10.5953 60.4517L0 60.8813L0.0715898 107.343H16.5373C20.5463 107.343 24.1974 104.981 25.8439 101.33L32.5018 86.5104C35.8665 79.1367 42.4528 73.839 50.1845 72.0493C52.8333 71.4766 55.339 73.4811 55.339 76.1299V107.343H60.6366C65.6479 107.343 70.5876 105.911 74.883 103.262C79.1784 100.614 82.6147 96.8194 84.834 92.3092L93.7827 74.2686C95.2145 71.405 98.0781 69.472 101.3 69.3289L111.895 68.8993L111.967 22.4375Z" fill="#F7F7F7"/>
<path d="M161.66 103H143.709V41.0207H161.66V49.7536H162.63C166.269 42.4762 173.061 39.3227 180.823 39.3227C193.923 39.3227 202.049 48.2981 202.049 62.853V103H184.098V67.7046C184.098 59.8207 179.974 55.4543 172.94 55.4543C165.783 55.4543 161.66 59.942 161.66 67.7046V103ZM243.811 104.698C223.919 104.698 209.85 90.9923 209.85 71.9497C209.85 52.9072 223.919 39.3227 243.811 39.3227C263.581 39.3227 277.651 52.9072 277.651 71.9497C277.651 90.9923 263.581 104.698 243.811 104.698ZM243.811 88.2026C252.786 88.2026 258.73 81.8955 258.73 71.9497C258.73 62.1252 252.786 55.6968 243.811 55.6968C234.714 55.6968 228.771 62.1252 228.771 71.9497C228.771 81.8955 234.714 88.2026 243.811 88.2026ZM361.406 41.0207V56.5459H346.852V82.6233C346.852 86.262 347.943 87.4749 351.703 87.4749H361.406V103H347.094C333.995 103 328.901 97.9058 328.901 84.6852V56.5459H314.346C306.826 56.5459 303.915 61.1549 303.915 68.9175V103H285.964V41.0207H303.915V51.9368H304.885C307.068 44.1743 310.95 41.0207 320.532 41.0207H328.901V22.342H346.852V41.0207H361.406ZM388.732 103H370.781V18.0969H388.732V49.7536H389.702C393.341 42.4762 400.133 39.3227 407.896 39.3227C420.995 39.3227 429.121 48.2981 429.121 62.853V103H411.171V67.7046C411.171 59.8207 407.047 55.4543 400.012 55.4543C392.856 55.4543 388.732 59.942 388.732 67.7046V103ZM459.352 103H441.159V85.4129H459.352V103Z" fill="#F7F7F7"/>
</svg>
